<?xml version="1.0" encoding="UTF-8" standalone="no"?>
<svg
   viewBox="0 0 1440 320"
   version="1.1"
   id="svg834"
   sodipodi:docname="wave3.svg"
   inkscape:version="1.1.2 (b8e25be833, 2022-02-05)"
   xmlns:inkscape="http://www.inkscape.org/namespaces/inkscape"
   xmlns:sodipodi="http://sodipodi.sourceforge.net/DTD/sodipodi-0.dtd"
   xmlns="http://www.w3.org/2000/svg"
   xmlns:svg="http://www.w3.org/2000/svg">
  <defs
     id="defs6" />
  <sodipodi:namedview
     id="namedview4"
     pagecolor="#505050"
     bordercolor="#eeeeee55"
     borderopacity="1"
     inkscape:pageshadow="0"
     inkscape:pageopacity="0"
     inkscape:pagecheckerboard="0"
     showgrid="false"
     inkscape:zoom="0.52492858"
     inkscape:cx="1441.1484"
     inkscape:cy="238.12763"
     inkscape:window-width="1920"
     inkscape:window-height="1009"
     inkscape:window-x="-8"
     inkscape:window-y="-8"
     inkscape:window-maximized="1"
     inkscape:current-layer="svg834" />
  <path
     fill="#c1c7c7"
     fill-opacity="1"
     d="m 0,128 c 45.358488,0 99.048999,-72.175545 160,-37.3 60.951,34.87555 106.04749,66.10188 159.04749,61.10188 C 372.34749,146.80188 427,117 480,90.7 533.3,64 587,96 640,90.7 693.3,85 747,43 800,48 c 53.3,5 88.9023,23.75711 141.9023,76.75711 53.3,53 124.1452,60.32698 177.1452,44.02698 53.3,-15.7 100.5024,-31.78741 160.9525,-51.48409 60.4501,-19.696676 108.6191,-5.14831 121.8631,0.44194 C 1411.2933,121.72244 1424.4359,128 1440,128 V 320 H 0 Z"
     id="path832"
     sodipodi:nodetypes="czcccccczscccc"
     style="stroke-width:1.00157;stroke-miterlimit:4;stroke-dasharray:none" />
</svg>
